<svg id="Calque_1-2" data-name="Calque 1-2" xmlns="http://www.w3.org/2000/svg" width="436.884" height="99.987" viewBox="0 0 436.884 99.987">
  <g id="Groupe_401" data-name="Groupe 401">
    <g id="Groupe_254" data-name="Groupe 254">
      <path id="Tracé_778" data-name="Tracé 778" d="M96.49,3.5V64.945A31.538,31.538,0,0,1,64.98,96.455H3.5V3.5H96.49m3.5-3.5H0V99.987H64.945A35,35,0,0,0,99.953,64.98V0h.035Z" fill="#fff"/>
    </g>
    <path id="Tracé_779" data-name="Tracé 779" d="M25.5,12.45c-.385.595-.734,1.154-1.154,1.714l-.21.315-.525.734A41.365,41.365,0,0,1,15.328,23.5c-.839.63-1.784,1.294-2.868,1.958V46.723H25.5V25.53H46.7V12.485H25.47Z" transform="translate(31.116 31.091)" fill="#fff"/>
    <path id="Tracé_780" data-name="Tracé 780" d="M6.35,27.519V40.563a34.36,34.36,0,0,0,17.661-5.141C25.06,34.758,25.9,34.2,26.7,33.6a36.438,36.438,0,0,0,6.96-6.96c.1-.14.21-.315.315-.49a2.918,2.918,0,0,0,.28-.42A34.3,34.3,0,0,0,40.588,6.29H27.544A21.789,21.789,0,0,1,6.35,27.484Z" transform="translate(15.858 15.708)" fill="#fff"/>
    <g id="Groupe_389" data-name="Groupe 389" transform="translate(122.09 11.156)">
      <path id="Tracé_330" data-name="Tracé 330" d="M104.023,37.656a15.013,15.013,0,0,1,3.952-11.051,13.962,13.962,0,0,1,10.247-3.952h5.386V9.363h-3.672a23.222,23.222,0,0,0-10.072,2.063,14.074,14.074,0,0,0-6.75,7.449V10.063H89.02V42.972h15V37.656Z" transform="translate(100.218 12.215)" fill="#fff"/>
      <rect id="Rectangle_172" data-name="Rectangle 172" width="15.003" height="32.909" transform="translate(234.878 22.278)" fill="#fff"/>
      <path id="Tracé_333" data-name="Tracé 333" d="M147.566,40.511v2.938H162.6V31.418a20.579,20.579,0,0,0-3.322-11.576,22.6,22.6,0,0,0-9.128-7.869,30.334,30.334,0,0,0-13.465-2.8,31.461,31.461,0,0,0-16.752,4.477A23.257,23.257,0,0,0,109.83,25.473l12.275,5.945a15,15,0,0,1,5.386-6.82,14.5,14.5,0,0,1,8.6-2.588,13.257,13.257,0,0,1,8.324,2.693,8.782,8.782,0,0,1,3.148,4.337L129,33.237c-7.869,1.574-12.765,3.567-16.3,6.995a18.979,18.979,0,0,0-2.588,3.218h26.544l10.912-2.938Z" transform="translate(152.187 11.738)" fill="#fff"/>
      <g id="Groupe_197" data-name="Groupe 197">
        <path id="Tracé_329" data-name="Tracé 329" d="M65.993,51.243a13.41,13.41,0,0,1,3.532-9.722,13.109,13.109,0,0,1,18.116-.07,13.335,13.335,0,0,1,3.532,9.792v7.134h15V47.71A24.747,24.747,0,0,0,103.2,35.4a21.543,21.543,0,0,0-8.289-8.324A24.726,24.726,0,0,0,82.71,24.1a24.451,24.451,0,0,0-9.722,1.889,16.069,16.069,0,0,0-6.995,5.666V3.19h-15V58.377h15Z" transform="translate(5.246 -3.19)" fill="#fff"/>
        <path id="Tracé_334" data-name="Tracé 334" d="M83.138,9.56V34.531A13.367,13.367,0,0,1,80.9,42.469H98.142V9.56Z" transform="translate(79.94 12.718)" fill="#fff"/>
        <path id="Tracé_335" data-name="Tracé 335" d="M85.043,35.58V9.56h-15V42.469h17.1a12.849,12.849,0,0,1-2.1-6.855" transform="translate(52.82 12.718)" fill="#fff"/>
        <path id="Tracé_336" data-name="Tracé 336" d="M83.8,37.813V25.153H66.246V3.19H52.152l.14,14.164a9.248,9.248,0,0,1-2.518,6.995,9.941,9.941,0,0,1-7.1,2.413H35.05l-.14,11.051H51.557V58.377H68.2a12.849,12.849,0,0,1-2.1-6.855V37.813H83.8Z" transform="translate(-34.91 -3.19)" fill="#fff"/>
      </g>
      <rect id="Rectangle_174" data-name="Rectangle 174" width="15.003" height="14.409" transform="translate(234.878 0.35)" fill="#fff"/>
    </g>
    <g id="Groupe_400" data-name="Groupe 400" transform="translate(138.755 76.265)">
      <g id="Groupe_399" data-name="Groupe 399" style="isolation: isolate">
        <g id="Groupe_390" data-name="Groupe 390" transform="translate(0 3.354)" style="isolation: isolate">
          <path id="Tracé_781" data-name="Tracé 781" d="M39.675,32.013V22.766h1.689v7.757h3.962v1.49Z" transform="translate(-39.675 -22.766)" fill="#fff"/>
          <path id="Tracé_782" data-name="Tracé 782" d="M42.313,32.013V22.766H44v9.247Z" transform="translate(-33.087 -22.766)" fill="#fff"/>
          <path id="Tracé_783" data-name="Tracé 783" d="M44.013,32.013V22.766h3.9a3.633,3.633,0,0,1,1.57.311,2.4,2.4,0,0,1,1.007.9,2.647,2.647,0,0,1,.353,1.4,2.184,2.184,0,0,1-.343,1.186,2.522,2.522,0,0,1-1.084.913v-.783a3.145,3.145,0,0,1,1.081.647,2.183,2.183,0,0,1,.556.853,3.038,3.038,0,0,1,.161,1,2.588,2.588,0,0,1-.874,2.077,3.594,3.594,0,0,1-2.427.752ZM45.7,26.351H48a1.125,1.125,0,0,0,.832-.3,1.054,1.054,0,0,0,.308-.787.994.994,0,0,0-.308-.769A1.175,1.175,0,0,0,48,24.2H45.7Zm0,4.172h2.385a1.49,1.49,0,0,0,1.049-.364,1.283,1.283,0,0,0,.392-.976,1.3,1.3,0,0,0-.392-.983,1.462,1.462,0,0,0-1.049-.371H45.7Z" transform="translate(-28.842 -22.766)" fill="#fff"/>
          <path id="Tracé_784" data-name="Tracé 784" d="M47.176,32.013V22.766h6.148v1.486H48.865v2.371h4.211v1.493H48.865v2.406h4.459v1.49Z" transform="translate(-20.943 -22.766)" fill="#fff"/>
        </g>
        <g id="Groupe_391" data-name="Groupe 391" transform="translate(35.956 3.354)" style="isolation: isolate">
          <path id="Tracé_785" data-name="Tracé 785" d="M49.956,32.013V22.766h3.438a3.9,3.9,0,0,1,1.672.339A2.592,2.592,0,0,1,56.2,24.1a2.917,2.917,0,0,1,.409,1.584,2.829,2.829,0,0,1-.451,1.623,2.706,2.706,0,0,1-1.224,1l2.123,3.711H55.142l-2.27-4.06,1.095.647H51.642v3.413Zm1.686-4.9h1.777a1.624,1.624,0,0,0,.794-.182,1.314,1.314,0,0,0,.525-.5,1.49,1.49,0,0,0,.185-.745,1.47,1.47,0,0,0-.185-.752,1.305,1.305,0,0,0-.525-.5,1.663,1.663,0,0,0-.794-.182H51.642Z" transform="translate(-49.956 -22.766)" fill="#fff"/>
        </g>
        <g id="Groupe_392" data-name="Groupe 392" transform="translate(45.619)" style="isolation: isolate">
          <path id="Tracé_786" data-name="Tracé 786" d="M55.115,32.013v-7.76h-2.4V22.766h6.456v1.486H56.818v7.76Z" transform="translate(-52.719 -19.412)" fill="#fff"/>
          <path id="Tracé_787" data-name="Tracé 787" d="M55.57,34.408V25.161h6.145v1.486H57.259v2.371h4.207v1.493H57.259v2.406h4.456v1.49Zm2.273-10.453.808-2.147H60.76l-1.315,2.147Z" transform="translate(-45.599 -21.807)" fill="#fff"/>
          <path id="Tracé_788" data-name="Tracé 788" d="M66.956,32.271a4.613,4.613,0,0,1-1.829-.36,4.484,4.484,0,0,1-1.465-1,4.6,4.6,0,0,1-.976-1.518,5.081,5.081,0,0,1-.346-1.9,5.214,5.214,0,0,1,.339-1.906,4.408,4.408,0,0,1,2.441-2.508,4.732,4.732,0,0,1,1.836-.353,4.538,4.538,0,0,1,1.78.332,4.21,4.21,0,0,1,1.336.888,3.319,3.319,0,0,1,.78,1.214l-1.511.706a2.465,2.465,0,0,0-2.385-1.6,2.859,2.859,0,0,0-1.532.409A2.766,2.766,0,0,0,64.393,25.8a3.642,3.642,0,0,0-.367,1.686,3.682,3.682,0,0,0,.367,1.693,2.785,2.785,0,0,0,1.032,1.14,2.859,2.859,0,0,0,1.532.409,2.465,2.465,0,0,0,2.385-1.6l1.511.706a3.319,3.319,0,0,1-.78,1.214,4.137,4.137,0,0,1-1.336.881A4.416,4.416,0,0,1,66.956,32.271Z" transform="translate(-28.693 -19.519)" fill="#fff"/>
          <path id="Tracé_789" data-name="Tracé 789" d="M65.875,32.013V22.766h3.438a3.9,3.9,0,0,1,1.672.339,2.573,2.573,0,0,1,1.133.993,2.917,2.917,0,0,1,.409,1.584,2.829,2.829,0,0,1-.451,1.623,2.716,2.716,0,0,1-1.221,1l2.119,3.711H71.061l-2.27-4.06,1.091.647H67.561v3.413Zm1.686-4.9h1.777a1.647,1.647,0,0,0,.8-.182,1.327,1.327,0,0,0,.521-.5,1.49,1.49,0,0,0,.185-.745,1.47,1.47,0,0,0-.185-.752,1.319,1.319,0,0,0-.521-.5,1.688,1.688,0,0,0-.8-.182H67.561Z" transform="translate(-19.865 -19.412)" fill="#fff"/>
          <path id="Tracé_790" data-name="Tracé 790" d="M68.932,34.408V25.161h6.141v1.486H70.618v2.371h4.211v1.493H70.618v2.406h4.456v1.49ZM71.2,23.954l.811-2.147h2.105L72.8,23.954Z" transform="translate(-12.23 -21.807)" fill="#fff"/>
        </g>
        <g id="Groupe_393" data-name="Groupe 393" transform="translate(111.123 3.354)" style="isolation: isolate">
          <path id="Tracé_791" data-name="Tracé 791" d="M71.449,32.013l3.19-9.247h2.186l3.19,9.247H78.178l-.658-1.986H73.943l-.668,1.986Zm2.98-3.476h2.609L75.5,23.931h.472Z" transform="translate(-71.449 -22.766)" fill="#fff"/>
        </g>
        <g id="Groupe_394" data-name="Groupe 394" transform="translate(121.79)" style="isolation: isolate">
          <path id="Tracé_792" data-name="Tracé 792" d="M76.9,32.013v-7.76H74.5V22.766h6.459v1.486H78.6v7.76Z" transform="translate(-74.499 -19.412)" fill="#fff"/>
          <path id="Tracé_793" data-name="Tracé 793" d="M77.35,32.013V22.766h1.689v9.247Z" transform="translate(-67.379 -19.412)" fill="#fff"/>
          <path id="Tracé_794" data-name="Tracé 794" d="M82.062,32.013l-3.228-9.247H80.67L83.2,30.425h-.36l2.532-7.659H87.21L84,32.013Z" transform="translate(-63.673 -19.412)" fill="#fff"/>
          <path id="Tracé_795" data-name="Tracé 795" d="M82.234,32.013V22.766h1.693v9.247Z" transform="translate(-55.182 -19.412)" fill="#fff"/>
          <path id="Tracé_796" data-name="Tracé 796" d="M86.111,32.013v-7.76H83.719V22.766h6.452v1.486H87.814v7.76Z" transform="translate(-51.474 -19.412)" fill="#fff"/>
          <path id="Tracé_797" data-name="Tracé 797" d="M86.569,34.408V25.161h6.145v1.486H88.258v2.371h4.211v1.493H88.258v2.406h4.456v1.49Zm2.273-10.453.808-2.147h2.109l-1.315,2.147Z" transform="translate(-44.357 -21.807)" fill="#fff"/>
        </g>
        <g id="Groupe_395" data-name="Groupe 395" transform="translate(186.839 3.354)" style="isolation: isolate">
          <path id="Tracé_798" data-name="Tracé 798" d="M93.1,32.013l3.19-9.247h2.186l3.193,9.247h-1.84l-.658-1.986H95.6l-.671,1.986Zm2.98-3.476h2.605l-1.539-4.606h.472Z" transform="translate(-93.099 -22.766)" fill="#fff"/>
        </g>
        <g id="Groupe_396" data-name="Groupe 396" transform="translate(197.506 3.354)" style="isolation: isolate">
          <path id="Tracé_799" data-name="Tracé 799" d="M98.545,32.013v-7.76h-2.4V22.766h6.456v1.486h-2.361v7.76Z" transform="translate(-96.149 -22.766)" fill="#fff"/>
          <path id="Tracé_800" data-name="Tracé 800" d="M101.182,32.013v-7.76h-2.4V22.766h6.459v1.486h-2.361v7.76Z" transform="translate(-89.571 -22.766)" fill="#fff"/>
          <path id="Tracé_801" data-name="Tracé 801" d="M101.634,32.013V22.766h3.438a3.9,3.9,0,0,1,1.672.339,2.592,2.592,0,0,1,1.133.993,2.917,2.917,0,0,1,.409,1.584,2.829,2.829,0,0,1-.451,1.623,2.734,2.734,0,0,1-1.221,1l2.119,3.711H106.82l-2.27-4.06,1.091.647H103.32v3.413Zm1.686-4.9H105.1a1.647,1.647,0,0,0,.8-.182,1.327,1.327,0,0,0,.521-.5,1.489,1.489,0,0,0,.185-.745,1.47,1.47,0,0,0-.185-.752,1.319,1.319,0,0,0-.521-.5,1.688,1.688,0,0,0-.8-.182H103.32Z" transform="translate(-82.451 -22.766)" fill="#fff"/>
        </g>
        <g id="Groupe_397" data-name="Groupe 397" transform="translate(226.533 3.354)" style="isolation: isolate">
          <path id="Tracé_802" data-name="Tracé 802" d="M104.449,32.013l3.19-9.247h2.186l3.19,9.247h-1.836l-.658-1.986h-3.578l-.668,1.986Zm2.98-3.476h2.609L108.5,23.931h.472Z" transform="translate(-104.449 -22.766)" fill="#fff"/>
        </g>
        <g id="Groupe_398" data-name="Groupe 398" transform="translate(237.931)" style="isolation: isolate">
          <path id="Tracé_803" data-name="Tracé 803" d="M112.324,32.271a4.613,4.613,0,0,1-1.829-.36,4.485,4.485,0,0,1-1.465-1,4.6,4.6,0,0,1-.976-1.518,5.013,5.013,0,0,1-.346-1.9,5.214,5.214,0,0,1,.339-1.906,4.408,4.408,0,0,1,2.441-2.508,4.732,4.732,0,0,1,1.836-.353,4.538,4.538,0,0,1,1.78.332,4.209,4.209,0,0,1,1.336.888,3.329,3.329,0,0,1,.783,1.214l-1.514.706a2.465,2.465,0,0,0-2.385-1.6,2.85,2.85,0,0,0-1.532.409,2.765,2.765,0,0,0-1.032,1.133,3.686,3.686,0,0,0-.367,1.686,3.727,3.727,0,0,0,.367,1.693,2.784,2.784,0,0,0,1.032,1.14,2.85,2.85,0,0,0,1.532.409,2.465,2.465,0,0,0,2.385-1.6l1.514.706a3.329,3.329,0,0,1-.783,1.214,4.136,4.136,0,0,1-1.336.881A4.416,4.416,0,0,1,112.324,32.271Z" transform="translate(-107.708 -19.519)" fill="#fff"/>
          <path id="Tracé_804" data-name="Tracé 804" d="M113.425,32.013v-7.76h-2.4V22.766h6.459v1.486h-2.361v7.76Z" transform="translate(-99.422 -19.412)" fill="#fff"/>
          <path id="Tracé_805" data-name="Tracé 805" d="M113.877,32.013V22.766h1.689v9.247Z" transform="translate(-92.302 -19.412)" fill="#fff"/>
          <path id="Tracé_806" data-name="Tracé 806" d="M118.589,32.013l-3.228-9.247h1.84l2.529,7.659h-.357l2.529-7.659h1.84l-3.214,9.247Z" transform="translate(-88.596 -19.412)" fill="#fff"/>
          <path id="Tracé_807" data-name="Tracé 807" d="M118.762,32.013V22.766h1.689v9.247Z" transform="translate(-80.103 -19.412)" fill="#fff"/>
          <path id="Tracé_808" data-name="Tracé 808" d="M122.642,32.013v-7.76h-2.4V22.766H126.7v1.486h-2.361v7.76Z" transform="translate(-76.397 -19.412)" fill="#fff"/>
          <path id="Tracé_809" data-name="Tracé 809" d="M123.1,34.408V25.161h6.145v1.486h-4.459v2.371h4.211v1.493h-4.211v2.406h4.459v1.49Zm2.27-10.453.811-2.147h2.105l-1.315,2.147Z" transform="translate(-69.277 -21.807)" fill="#fff"/>
        </g>
      </g>
      <rect id="Rectangle_266" data-name="Rectangle 266" width="1.469" height="1.469" transform="translate(69.998 7.25)" fill="#fff"/>
      <rect id="Rectangle_267" data-name="Rectangle 267" width="1.469" height="1.469" transform="translate(178.414 7.25)" fill="#fff"/>
    </g>
  </g>
</svg>
